<?xml version="1.0" standalone="no"?>
<!DOCTYPE svg PUBLIC "-//W3C//DTD SVG 20010904//EN"
 "http://www.w3.org/TR/2001/REC-SVG-20010904/DTD/svg10.dtd">
<svg version="1.0" xmlns="http://www.w3.org/2000/svg"
 width="851.000000pt" height="851.000000pt" viewBox="0 0 851.000000 851.000000"
 preserveAspectRatio="xMidYMid meet">
<metadata>
Created by potrace 1.14, written by Peter Selinger 2001-2017
</metadata>
<g transform="translate(0.000000,851.000000) scale(0.100000,-0.100000)"
fill="#000000" stroke="none">
<path d="M1690 6803 c-25 -24 -109 -108 -187 -186 -79 -77 -143 -144 -143
-149 0 -4 84 -93 188 -198 l187 -190 175 0 175 0 389 385 389 385 -564 -1
-564 0 -45 -46z"/>
<path d="M1016 6121 l-189 -189 1 -499 c0 -274 1 -509 1 -523 1 -19 62 -86
240 -267 l238 -241 24 23 c13 12 78 78 144 146 l120 123 0 619 1 619 -189 189
c-104 104 -192 189 -196 189 -3 0 -91 -85 -195 -189z"/>
<path d="M2180 5610 c0 -3 20 -23 45 -45 25 -22 58 -51 73 -65 33 -30 184
-166 221 -198 14 -13 43 -39 63 -57 l37 -34 423 0 423 0 35 30 c30 26 102 91
210 189 15 14 45 40 66 59 88 78 133 121 126 122 -26 4 -1722 3 -1722 -1z"/>
<path d="M4530 5608 c0 -4 8 -13 18 -20 11 -7 56 -47 102 -88 45 -41 95 -86
110 -100 40 -36 159 -141 189 -167 l26 -23 420 0 420 0 35 31 c19 17 51 45 70
62 19 18 73 66 119 107 47 41 96 86 111 100 15 14 42 39 61 55 19 17 38 35 41
40 4 7 -285 10 -858 10 -475 0 -864 -3 -864 -7z"/>
<path d="M4439 5537 c-1 -1 -2 -238 -3 -526 l-1 -523 82 -75 c44 -41 84 -75
88 -75 6 0 101 85 229 204 l51 47 0 276 0 276 -59 52 c-32 29 -69 61 -80 72
-12 11 -53 47 -91 80 -85 73 -138 120 -182 162 -18 17 -34 31 -34 30z"/>
<path d="M2086 5013 c1 -285 2 -521 3 -525 2 -12 160 -154 168 -151 2 1 33 28
67 60 35 32 97 89 137 126 l74 68 -2 272 c0 150 -1 275 -2 278 -1 3 -40 39
-88 81 -49 42 -104 90 -123 108 -19 17 -64 57 -100 88 -35 31 -78 69 -94 85
-16 15 -32 27 -35 27 -3 0 -6 -233 -5 -517z"/>
<path d="M3935 5482 c-49 -46 -70 -65 -226 -202 -40 -36 -87 -78 -104 -93 -16
-16 -36 -32 -44 -36 -11 -7 -13 -59 -13 -286 l0 -277 35 -32 c78 -70 211 -192
226 -208 16 -16 19 -15 52 15 19 18 58 52 85 77 l50 45 0 523 c0 287 -3 522
-6 522 -3 0 -28 -22 -55 -48z"/>
<path d="M6319 5511 c-18 -18 -73 -68 -175 -157 -187 -165 -244 -217 -245
-223 -1 -3 -2 -125 -4 -271 l-2 -265 63 -61 c98 -96 210 -194 221 -194 5 0 45
35 89 78 l80 77 -1 512 c0 282 -3 514 -5 516 -3 2 -12 -3 -21 -12z"/>
<path d="M5388 5102 c-17 -20 -144 -133 -180 -161 l-25 -20 0 -400 0 -400 91
-85 c147 -136 131 -129 180 -81 24 22 73 68 110 102 l67 62 0 397 1 398 -53
49 c-30 27 -74 68 -99 91 -73 67 -74 68 -92 48z"/>
<path d="M203 4453 l-197 -192 171 -168 c94 -92 183 -179 197 -193 26 -24 29
-24 214 -25 l187 0 193 192 193 193 -191 192 -192 192 -189 1 -190 0 -196
-192z"/>
<path d="M2523 4423 c-98 -88 -166 -148 -175 -154 -12 -8 38 -57 200 -198 17
-14 66 -16 488 -14 258 1 474 2 480 2 10 1 62 45 178 154 l51 47 -65 58 c-35
31 -85 76 -110 99 l-45 43 -480 0 -481 0 -41 -37z"/>
<path d="M2203 4137 c-26 -25 -64 -59 -83 -76 l-35 -31 0 -556 c0 -306 2 -557
5 -559 6 -4 26 13 151 126 45 41 91 82 103 92 12 10 59 54 106 97 l85 78 -1
311 c0 179 -4 315 -10 320 -5 4 -54 48 -109 97 -55 49 -102 91 -105 94 -3 3
-17 16 -32 28 l-26 24 -49 -45z"/>
<path d="M3765 4124 c-33 -30 -82 -75 -110 -99 -27 -23 -63 -55 -78 -69 l-29
-27 0 -311 -1 -311 34 -31 c62 -55 212 -191 223 -201 40 -38 186 -165 189
-165 2 0 3 252 3 560 l-1 561 -55 50 c-30 28 -67 61 -82 75 -14 13 -28 24 -30
24 -1 0 -30 -25 -63 -56z"/>
<path d="M4550 4133 c-29 -27 -67 -60 -84 -76 l-31 -27 0 -551 c0 -303 3 -555
6 -561 3 -5 27 10 52 34 25 24 60 56 79 72 33 28 170 151 192 172 6 5 36 32
66 59 l55 49 0 310 c0 297 -1 311 -20 332 -11 11 -63 59 -115 105 -52 46 -105
94 -118 107 -12 12 -24 22 -26 22 -1 0 -27 -21 -56 -47z"/>
<path d="M6149 4157 c-24 -21 -138 -123 -217 -195 l-37 -33 -1 -312 c0 -172 3
-314 6 -317 8 -6 140 -123 180 -160 15 -14 60 -54 100 -90 39 -36 90 -82 113
-102 22 -20 43 -35 46 -33 3 2 6 254 6 560 l-1 557 -24 20 c-14 11 -45 39 -70
61 -75 70 -73 69 -101 44z"/>
<path d="M1066 3871 l-239 -240 0 -521 0 -522 189 -189 c104 -104 192 -189
196 -189 3 0 91 85 195 189 l189 189 -1 620 0 619 -142 141 c-78 78 -143 142
-145 142 -2 0 -111 -108 -242 -239z"/>
<path d="M6819 2902 l-36 -3 1 -109 c1 -59 4 -112 8 -116 10 -9 1677 -12 1698
-3 12 6 15 29 14 119 l-1 112 -824 1 c-453 1 -840 1 -860 -1z"/>
<path d="M1775 2442 c-37 -3 -53 -16 -227 -190 -104 -103 -188 -191 -188 -195
0 -5 85 -93 189 -197 l188 -188 563 0 562 -1 -388 384 -388 384 -135 3 c-75 2
-154 2 -176 0z"/>
</g>
</svg>
