<svg width="295" height="115" viewBox="0 0 298 118" fill="none" xmlns="http://www.w3.org/2000/svg">
<path d="M205.746 79.6468C205.746 82.1054 205.047 83.9887 203.647 85.2966C202.248 86.6035 200.227 87.257 197.585 87.257H193.355V72.3234H198.044C200.483 72.3234 202.376 72.9662 203.724 74.2537C205.072 75.5411 205.746 77.3383 205.746 79.6468ZM202.457 79.7294C202.457 76.5214 201.04 74.9178 198.208 74.9178H196.523V84.6422H197.881C200.932 84.6422 202.457 83.0049 202.457 79.7294Z" fill="white"/>
<path d="M218.491 87.257H209.89V72.3234H218.491V74.9178H213.057V78.1969H218.113V80.7913H213.057V84.6422H218.491V87.257Z" fill="white"/>
<path d="M231.465 83.1141C231.465 84.462 230.98 85.5248 230.009 86.3008C229.039 87.0769 227.689 87.4649 225.959 87.4649C224.366 87.4649 222.956 87.1656 221.73 86.5663V83.6247C222.738 84.074 223.591 84.3909 224.289 84.5747C224.987 84.7585 225.626 84.85 226.205 84.85C226.899 84.85 227.432 84.7177 227.803 84.4522C228.174 84.1867 228.359 83.7916 228.359 83.2669C228.359 82.9738 228.278 82.7137 228.114 82.4855C227.951 82.2573 227.711 82.038 227.394 81.8267C227.077 81.6153 226.433 81.2788 225.459 80.8153C224.546 80.3865 223.861 79.9745 223.405 79.5794C222.949 79.1843 222.585 78.7243 222.312 78.2005C222.04 77.6757 221.904 77.0631 221.904 76.3616C221.904 75.0404 222.351 74.0016 223.247 73.2459C224.143 72.4903 225.381 72.1121 226.96 72.1121C227.736 72.1121 228.477 72.2044 229.182 72.3882C229.887 72.572 230.624 72.8304 231.393 73.1643L230.372 75.6264C229.575 75.2997 228.916 75.0715 228.395 74.9418C227.875 74.8122 227.361 74.7474 226.858 74.7474C226.259 74.7474 225.799 74.8868 225.479 75.1665C225.159 75.4453 224.999 75.8102 224.999 76.2595C224.999 76.5383 225.064 76.7825 225.193 76.9902C225.322 77.1971 225.528 77.3987 225.811 77.5922C226.094 77.7867 226.763 78.1356 227.818 78.64C229.215 79.3068 230.171 79.9763 230.688 80.6466C231.206 81.3179 231.465 82.1401 231.465 83.1141Z" fill="white"/>
<path d="M238.386 72.3234H235.22V87.2579H238.386V72.3234Z" fill="white"/>
<path d="M248.86 78.8744H254.785V86.6178C253.825 86.9304 252.921 87.1505 252.073 87.2766C251.225 87.4027 250.358 87.4649 249.473 87.4649C247.219 87.4649 245.498 86.8034 244.309 85.4786C243.121 84.1539 242.527 82.252 242.527 79.7738C242.527 77.3623 243.216 75.4835 244.595 74.1347C245.974 72.786 247.886 72.1121 250.331 72.1121C251.863 72.1121 253.341 72.4184 254.764 73.0311L253.712 75.5652C252.622 75.02 251.489 74.7474 250.31 74.7474C248.942 74.7474 247.846 75.2073 247.022 76.1263C246.198 77.0462 245.786 78.2822 245.786 79.8351C245.786 81.4555 246.118 82.6933 246.781 83.5474C247.445 84.4025 248.41 84.8296 249.677 84.8296C250.338 84.8296 251.008 84.7621 251.689 84.6253V81.5097H248.86V78.8744Z" fill="white"/>
<path d="M272.636 87.257H268.611L262.115 75.9593H262.023C262.152 77.9554 262.217 79.3787 262.217 80.2293V87.257H259.388V72.3234H263.381L269.868 83.5083H269.939C269.837 81.5673 269.786 80.1955 269.786 79.392V72.3234H272.636V87.257Z" fill="white"/>
<path d="M196.522 50.6633H193.355V65.5978H196.522V50.6633Z" fill="white"/>
<path d="M214.578 65.597H210.553L204.056 54.2992H203.965C204.094 56.2944 204.158 57.7177 204.158 58.5692V65.597H201.329V50.6633H205.323L211.81 61.8482H211.881C211.779 59.9073 211.728 58.5354 211.728 57.7319V50.6633H214.578V65.597Z" fill="white"/>
<path d="M225.145 65.597H221.979V53.2986H217.923V50.6633H229.2V53.2986H225.145V65.597Z" fill="white"/>
<path d="M241.143 65.597H232.542V50.6633H241.143V53.2577H235.709V56.5368H240.765V59.1312H235.709V62.9821H241.143V65.597Z" fill="white"/>
<path d="M248.472 57.2924H249.494C250.495 57.2924 251.233 57.1254 251.71 56.7916C252.187 56.4577 252.426 55.9339 252.426 55.2191C252.426 54.5106 252.182 54.0062 251.695 53.707C251.209 53.4069 250.454 53.2577 249.433 53.2577H248.472V57.2924ZM248.472 59.8664V65.597H245.306V50.6633H249.657C251.686 50.6633 253.189 51.0326 254.162 51.7714C255.136 52.5101 255.623 53.6324 255.623 55.1374C255.623 56.0156 255.381 56.7969 254.898 57.4815C254.414 58.1661 253.729 58.7024 252.844 59.0904C255.091 62.4475 256.556 64.6167 257.237 65.597H253.723L250.158 59.8664H248.472Z" fill="white"/>
<path d="M263.33 50.6633H260.164V65.5978H263.33V50.6633Z" fill="white"/>
<path d="M281.69 58.1057C281.69 60.5785 281.077 62.4778 279.851 63.8061C278.626 65.1344 276.869 65.7976 274.58 65.7976C272.292 65.7976 270.535 65.1344 269.309 63.8061C268.084 62.4778 267.471 60.5714 267.471 58.0853C267.471 55.6 268.085 53.7017 269.314 52.3911C270.544 51.0797 272.306 50.4244 274.601 50.4244C276.895 50.4244 278.651 51.085 279.866 52.4062C281.082 53.7274 281.69 55.6276 281.69 58.1057ZM270.791 58.1057C270.791 59.7741 271.107 61.0314 271.74 61.8758C272.374 62.7202 273.321 63.1419 274.58 63.1419C277.107 63.1419 278.37 61.4638 278.37 58.1057C278.37 54.7423 277.114 53.0597 274.601 53.0597C273.341 53.0597 272.391 53.4842 271.751 54.3312C271.111 55.1792 270.791 56.4373 270.791 58.1057Z" fill="white"/>
<path d="M289 57.2924H290.022C291.022 57.2924 291.761 57.1254 292.238 56.7916C292.715 56.4577 292.954 55.9339 292.954 55.2191C292.954 54.5106 292.709 54.0062 292.223 53.707C291.736 53.4069 290.982 53.2577 289.96 53.2577H289V57.2924ZM289 59.8664V65.597H285.833V50.6633H290.185C292.214 50.6633 293.716 51.0326 294.689 51.7714C295.663 52.5101 296.151 53.6324 296.151 55.1374C296.151 56.0156 295.909 56.7969 295.425 57.4815C294.942 58.1661 294.257 58.7024 293.372 59.0904C295.619 62.4475 297.083 64.6167 297.764 65.597H294.251L290.686 59.8664H289Z" fill="white"/>
<path d="M200.526 30.3173C198.885 30.3173 197.59 30.8634 196.64 31.9564C195.69 33.0494 195.215 34.5455 195.215 36.4456C195.215 38.3999 195.673 39.9102 196.588 40.9766C197.505 42.0421 198.811 42.5748 200.506 42.5748C201.548 42.5748 202.736 42.3875 204.072 42.0128V43.5347C203.036 43.9236 201.759 44.1171 200.24 44.1171C198.041 44.1171 196.343 43.4503 195.148 42.1149C193.953 40.7804 193.355 38.8838 193.355 36.4252C193.355 34.8865 193.643 33.5377 194.219 32.3799C194.794 31.223 195.625 30.3306 196.711 29.7037C197.798 29.0778 199.076 28.7643 200.547 28.7643C202.113 28.7643 203.482 29.0503 204.653 29.6221L203.918 31.1137C202.788 30.5828 201.657 30.3173 200.526 30.3173Z" fill="white"/>
<path d="M210.115 37.6993V43.9102H208.379V28.9756H212.475C214.307 28.9756 215.66 29.3263 216.535 30.0278C217.411 30.7292 217.847 31.7849 217.847 33.1949C217.847 35.1696 216.847 36.5042 214.845 37.1994L218.9 43.9102H216.847L213.23 37.6993H210.115ZM210.115 36.2085H212.495C213.72 36.2085 214.62 35.9643 215.192 35.4778C215.764 34.9912 216.049 34.2604 216.049 33.2864C216.049 32.299 215.759 31.5878 215.177 31.1519C214.594 30.7159 213.659 30.4984 212.373 30.4984H210.115V36.2085Z" fill="white"/>
<path d="M230.681 43.9102H222.355V28.9756H230.681V30.5188H224.092V35.3295H230.282V36.862H224.092V42.3572H230.681V43.9102Z" fill="white"/>
<path d="M244.424 43.9072L242.564 39.1569H236.578L234.74 43.9072H232.983L238.887 28.9113H240.348L246.222 43.9072H244.424ZM242.023 37.5941L240.287 32.9673C240.061 32.3813 239.83 31.6629 239.592 30.8114C239.442 31.4658 239.228 32.1841 238.948 32.9673L237.192 37.5941H242.023Z" fill="white"/>
<path d="M252.456 43.9102H250.719V30.5188H245.99V28.9756H257.186V30.5188H252.456V43.9102Z" fill="white"/>
<path d="M262.217 28.9756H260.481V43.9102H262.217V28.9756Z" fill="white"/>
<path d="M275.885 28.9756H277.755L272.372 43.9102H270.655L265.303 28.9756H267.141L270.574 38.6396C270.969 39.7495 271.282 40.8292 271.513 41.8778C271.758 40.7741 272.079 39.6749 272.474 38.5783L275.885 28.9756Z" fill="white"/>
<path d="M289.18 43.9102H280.855V28.9756H289.18V30.5188H282.591V35.3295H288.782V36.862H282.591V42.3572H289.18V43.9102Z" fill="white"/>
<path d="M182.492 26.3708C185.525 21.6303 190.61 13.8549 191.402 8.1652C191.877 4.75209 190.626 0.958954 187.66 0.958954C176.836 0.958954 158.324 40.215 151.927 51.0244C150.398 48.1804 149.583 45.5247 146.448 45.7147C133.717 46.663 101.577 65.6278 98.4618 88.0057C97.5375 94.6428 99.1517 112.831 105.815 112.831C112.487 112.831 128.846 94.4528 134.83 88.7639C133.578 93.5054 132.299 98.4359 131.639 103.172C130.796 109.232 131.963 116.808 137.589 116.808C148.406 116.808 166.446 96.9185 174.787 87.0574L174.62 80.7985C169.321 84.7817 153.542 100.142 148.501 100.142C145.238 100.142 145.988 93.6945 146.411 90.6605C148.099 78.5228 156.932 66.196 163.198 56.335L182.492 26.3708ZM145.335 62.2138C141.409 73.4023 114.362 96.1602 112.661 95.591C111.082 95.2119 110.551 93.6945 110.937 91.9879C113.57 79.4711 117.731 73.0231 145.335 62.2138Z" fill="white"/>
<path d="M33.4343 65.2C33.0809 68.8032 33.904 73.5437 37.3144 73.5437C41.318 73.5437 55.0636 58.9412 56.5154 48.511C57.3074 42.8222 55.6541 39.7873 51.0574 39.7873C42.7537 39.7873 27.0946 50.0284 19.5252 56.4764C8.60486 65.7683 3.3458 71.648 1.1287 87.5779C-0.823808 101.607 2.75534 115.242 14.1631 115.242C28.2489 115.242 47.4649 96.4907 58.2255 84.1639L57.4752 76.7677C47.6878 85.3022 32.9406 98.5773 21.6722 98.5773C13.9616 98.5773 11.2215 92.6976 11.828 88.3362C12.5676 83.0265 15.6326 80.1817 19.3166 77.1477L33.4343 65.2Z" fill="white"/>
<path d="M105.72 83.0755C99.0257 88.5751 89.9202 98.6262 82.0649 98.6262C75.2467 98.6262 73.604 94.454 75.8717 86.6786C82.8622 81.1789 99.8851 64.3007 101.205 54.8188C101.785 50.6465 97.9415 49.5091 95.4225 49.5091C86.5293 49.5091 64.8617 72.0761 61.6413 95.2131C60.2961 104.877 62.5052 117.757 71.2502 117.757C82.5142 117.757 97.93 100.71 106.051 90.2826L105.72 83.0755ZM103.962 45.7159C110.33 45.7159 117.104 36.4231 118.16 28.8377C118.635 25.4237 116.757 22.9589 114.091 22.9589C108.314 22.9589 100.254 29.786 99.1722 37.5614C98.5382 42.1128 100.406 45.7159 103.962 45.7159Z" fill="white"/>
</svg>
